<?xml version="1.0" encoding="UTF-8"?>
<svg id="Capa_3" data-name="Capa 3" xmlns="http://www.w3.org/2000/svg" viewBox="0 0 1080 475">
  <defs>
    <style>
      .cls-1 {
        fill: #699aa6;
      }
    </style>
  </defs>
  <path class="cls-1" d="m342.04,337.58c-1.76,1.55-5.64,4.97-7.15,10.73-.26.98-2.5,10.12,3.3,16.78,6.08,6.98,17.13,5.22,20.63,4.68,24.09-3.72,35.86-36.96,37.13-40.71-3.4-.41-39.23-4.46-53.91,8.53Z"/>
  <path class="cls-1" d="m829.15,332.98c-1.76,1.55-5.64,4.97-7.15,10.73-.26.98-2.5,10.12,3.3,16.78,6.08,6.98,17.13,5.22,20.63,4.68,24.09-3.72,35.86-36.96,37.13-40.71-3.4-.41-39.23-4.46-53.91,8.53Z"/>
  <path class="cls-1" d="m972.19,372.07c-3.05-3.12-5.93-6.07-7.87-9.14-2.92-4.59-3.28-9.05-3.54-26.14l-.07-4.31c-1.65-93.55-4.09-114.79-15.38-133.67-10.1-16.89-25.14-31.04-43.49-40.92-16.91-9.1-35.91-13.72-56.48-13.72-2.84,0-5.32.08-7.37.16-9.67.37-35.36,1.35-61.96,17.91-24.83,15.46-36.68,35.74-43.76,47.85-5.82,9.97-9.99,20.51-15.32,35.54-1.17-4.84-2.45-9.88-3.85-15.11l-.79-2.95c-1.31-4.87-3.95-14.69-7.45-27.84-2.18-8.16-5.85-22.01-5.85-22.01l-1.05-2.06c-8.58-16.76-26.04-27.64-44.59-27.86,6.27-7.57,10.06-16.37,9.98-25.96-.12-15.52-10.62-30-24.96-34.44-3.08-.95-6.32-1.44-9.62-1.44-2.45,0-4.89.26-7.29.76-3.93-6.03-9.29-10.86-15.89-13.91-4.75-2.2-10.1-3.36-15.48-3.36-5.92,0-11.78,1.38-16.97,3.99-6.24,3.15-11.31,7.89-15.05,13.73-2.24-.43-4.5-.64-6.78-.64-2.1,0-4.16.22-6.18.6v-25.35l-.1-1.02c-2.23-23.47-18.9-42.85-40.55-47.15-2.97-.59-6.02-.89-9.08-.89-25.9,0-48.27,20.24-52.03,47.09l-.21,1.49v27.27h-1.63c-.77-.03-1.55-.05-2.31-.05-15.96,0-31.13,6.79-41.62,18.63-9.62,10.86-14.21,24.72-12.6,38.02.02.16.04.32.06.48-7.41-1.55-15.14-2.33-23.15-2.33-16.75,0-30.03,3.51-35.02,4.84-23.94,6.32-41.46,16.06-52.36,29.06-3.62-4.38-7.84-8.64-12.74-12.57-24.84-19.92-52.49-20.14-62.9-20.23h-1.48c-26.4,0-50.36,8.36-69.28,24.18-34.02,28.45-37.39,68.65-37.61,80.3l-.56,153.1.08.94c2.27,27.12,25.25,48.36,52.3,48.36.41,0,.81,0,1.22-.01,26.85-.63,48.79-21.42,51.04-48.35,1.9-22.74,1.22-44.75.49-68.06-.6-19.38-1.22-39.42-.43-61.7.21-6.02,1.17-8.15,1.93-8.89.72-.69,2.7-1.21,4.62-1.21h.11c1,.16,3.94.92,5.11,2.5.47,1.19,1,5.87,1.39,9.29.86,7.51.65,12.72.29,21.35-.15,3.65-.31,7.72-.43,12.62-.19,8.15-.38,16.58.03,23.7.77,13.18,5.27,46.79,30.34,74.31,18.13,19.91,38.33,27.23,50.39,31.6,16.12,5.84,33.18,8.81,50.7,8.81,27.25,0,50.08-7.07,64.44-13,4.52-1.87,8.96-3.94,13.31-6.21,10.82,11.82,26.31,19.06,43.1,19.12,15.4,0,29.84-6.27,40.53-16.58,12.21,8.92,28.95,17.18,49.07,17.19h0c1.81,0,3.65-.07,5.46-.21,47.38-3.6,84.29-51.21,82.44-106.23v-11.33c11.74,39.33,23.82,74.89,32.79,89.54,4.59,7.5,16.79,27.41,39.14,28.42.54.02,1.08.04,1.64.04,7.69,0,15.14-2.39,22.75-7.31,12.41-8.01,22.32-21.03,28.52-37.3,15.93,23.94,41.52,40.88,70.88,44.94,4.4.61,8.88.92,13.29.92,24.76,0,44.73-9.38,58.35-18.58,4.61,4.16,10.24,8,17.06,10.89,8.2,3.47,17.86,5.46,26.51,5.46h0c17.36,0,27.32-7.48,32.61-13.76,5.78-6.86,8.86-15.61,8.92-25.31.1-17.53-10.25-28.13-17.81-35.88ZM547.78,108.62c7.95-2.63,19.75,4.29,26.67,18.91-5.31-15.85-.74-30.24,8.39-34.85,4.08-2.06,9.39-2.31,13.7-.32,9.17,4.24,14.1,18.76,8.92,35.16,7.03-14.81,18.59-22.01,26.56-19.55,5.45,1.68,9.73,8.03,9.77,14.02.12,15-26.27,31.05-50.67,31.87-24.37.82-52.14-13.35-53.22-29-.46-6.67,3.88-14.27,9.88-16.25Zm-.99,56.61c-.57.76-1.13,1.54-1.66,2.34v-3.23c.55.3,1.1.6,1.66.89Zm6.68,260.83c-32.06,2.43-55.19-26.5-57.4-29.34-3.92,16.93-19.07,28.94-36.17,28.88-16.46-.06-31.1-11.3-35.53-27.41-6.57,4.72-16.3,10.9-28.97,16.14-16.91,6.99-56.46,19.48-99.57,3.85-10.64-3.86-27.26-9.88-41.81-25.86-21.79-23.92-24.35-54.14-24.76-61.06-.37-6.26-.18-14.19,0-22,.39-16.79,1.45-24.14,0-36.86-1.09-9.5-1.7-14.35-5.23-19.25-7.35-10.24-19.76-11.46-20.81-11.55-1.35-.11-13.16-.91-21.55,7.15-7.73,7.44-8.34,18.35-8.53,23.65-1.77,49.97,3.32,88.87,0,128.73-1.32,15.87-14.48,28.24-30.07,28.61-16.12.38-30.16-12.18-31.54-28.61l.55-151.83c.11-5.53,1.34-40.3,29.89-64.18,22.78-19.05,48.67-19.23,56.75-19.16,8.88.07,30.6.25,49.6,15.49,20.05,16.08,25.21,39.38,27.51,49.88.21.96.39,1.86.56,2.82,1.36,7.72,1.78,13.97,1.93,17.89.05,1.44.07,2.5.07,2.77.1,5.99,1.03,26.74,3.67,77.02,1.09-8.03,5.09-28.85,22.55-45.11,13.68-12.73,28.86-16.38,38.51-18.7,18.64-4.48,34.42-2.77,43.46-1.1.39-4.27,1.15-18.5-8.43-30.07-2.02-2.44-7.26-8.1-15.59-11-25.62-8.94-47.71,19.63-67.57,9.17-6.41-3.38-9.54-9.21-9.9-9.9-4.94-9.51-1.35-19.98-.27-23.1,7.71-22.46,39.19-30.79,47.58-33.01,8.77-2.32,43.14-11.41,74.27,8.25,25.71,16.24,34.64,42.89,36.58,49.24,12.41,40.55,3.59,115.04,7.29,122.81.91,1.91,2.48,2.75,2.48,2.75,2.5,1.34,6.26.55,8.3-1.6,1.7-1.8,1.86-4.19,1.93-5.13.35-4.89.82-14.94,1.1-28.15.31-49.94.61-99.88.92-149.81h-24.2c-18.12,1.47-32.99-11.02-34.66-24.75-1.91-15.72,13.41-33.53,34.66-32.46h23.65v-47.31c2.68-19.1,20.14-31.12,35.57-28.06,12.06,2.39,21.93,13.8,23.29,28.06v221.15c.14,10.47-.02,18.69-.18,24.2-.24,7.91-.6,13.7,2.93,19.62,2.45,4.11,5.22,5.77,6.05,6.23,3.92,2.17,9.13,2.62,13.34.55,0,0,2.47-1.22,4.4-3.58,4.51-5.51,6.57-23.41,5.36-47.03.92-30.5,1.83-61,2.75-91.5,1.86-14.38,13.76-25.36,27.87-26.04,13.38-.64,25.75,8.14,29.71,21.27.06,51.34.12,102.69.18,154.03,1.72,46.32-29.21,81.82-62.53,84.35Zm411.13-6.69c-7.7,9.13-24.78,6.34-34.24,2.34-13.61-5.76-19.94-17.62-22-22-2.54,2.8-30.92,32.98-72.13,27.27-35.09-4.86-63.26-33.49-68.58-68.21-5.85-38.2,18.1-69.33,39.24-82.52,15.06-9.4,33.68-12.6,39.24-13.57,13.71-2.4,25.45-2.18,33.76-1.47.08-2.26.61-25.29-15.4-35.94-8.48-5.64-18.56-5.79-24.2-5.87,0,0-10.92-.16-21.27,3.67-20.41,7.54-34.7,37.45-44.01,63.08-12.18,33.52-27.85,92.8-30.07,101.22-1.1,4.17-6.5,24.72-22.74,35.21-5.06,3.26-8.74,3.99-11.74,3.85-9.77-.44-16.89-10.26-21.73-18.15-19.37-31.62-59.72-190.25-64.4-208.77-.39-14.55,9.76-27.14,23.38-29.71,12.33-2.32,25.12,4.03,31.08,15.68,1.28,4.81,3.09,11.63,5.27,19.8,4.51,16.93,7.59,28.35,8.25,30.81,12.43,46.38,14.93,78.79,21.73,78.94,4.16.09,5.74-11.97,18.7-49.23,7.89-22.68,11.96-34.23,18.15-44.83,6.47-11.07,16.35-27.86,36.54-40.43,21.31-13.27,42.07-14.31,51.39-14.67,9.84-.37,30.69-.91,52.81,11,5.08,2.73,23.07,12.7,35.21,33.01,8.24,13.79,10.73,31.78,12.33,123,.36,20.42-.01,30.64,6.97,41.63,8.55,13.45,22.41,19.59,22.33,33.33,0,1.57-.12,7.12-3.85,11.55Z"/>
</svg>