<?xml version="1.0" encoding="UTF-8"?>
<svg id="Capa_2" data-name="Capa 2" xmlns="http://www.w3.org/2000/svg" viewBox="0 0 170.89 145.06">
  <defs>
    <style>
      .cls-1 {
        fill: #699aa6;
      }
    </style>
  </defs>
  <g id="Capa_3" data-name="Capa 3">
    <path class="cls-1" d="m168.7,37.18c-1.9-2.39-4.84-3.7-8.03-3.65-3.25.08-6.28,1.63-8.1,4.16-1.74,2.41-2.61,5.47-3.45,8.43-.27.97-.55,1.93-.84,2.83-.51,1.57-1,3.15-1.49,4.73-.79,2.55-1.61,5.19-2.51,7.74-1.09,3.07-2.68,6.88-5.37,9.09-1.64,1.34-2.71.87-4.33.15-.86-.38-1.83-.81-3-.97-4.06-.57-7.05,1.7-9.94,3.88l-.11.08c-.61.46-1.15.91-1.64,1.32-2.31,1.92-3.37,2.8-6.44,1.01-3.11-1.81-6.51-3.65-10.23-4.81-2.12-.66-4.2-.83-6.22-1-1.37-.11-2.78-.23-4.17-.5-.52-.1-.87-.15-1.1-.18-.01,0-.02,0-.03,0,0-.18-.04-.44-.15-.78-.22-.71.65-2.7,1.16-3.89.25-.58.47-1.09.6-1.47,1.24-3.78,2.64-7.62,4.19-11.43.24-.59.48-1.31.73-2.08.85-2.58,1.91-5.8,3.78-6.4.67-.22,2.34.19,3.55.49.74.18,1.45.35,1.96.41,1.98.22,4.1.34,6.3.35,7.1.08,13.2-1.44,18.21-4.41,6.04-3.58,9.59-8.96,13.35-14.65l.38-.57c.4-.6.83-1.22,1.26-1.84,3.19-4.61,6.82-9.83,3.08-15.46-3.21-4.83-11.08-6.02-16.83-6.89-.75-.11-1.46-.22-2.12-.33-8.27-1.38-14.75-.13-19.81,3.8-4.95,3.84-9.13,10.18-11.78,17.85-.97,2.81-1.57,5.74-2.16,8.58-.84,4.1-1.71,8.32-3.71,12.12-.54-5.35-1.75-10.04-3.67-14.28-2.05-4.51-5.98-10.41-13.13-12.88-6.93-2.39-23.25-4.32-29.61,2.06-2.65,2.66-3.17,6.4-1.53,11.1,4.27,12.24,8.68,24.9,22.77,30.39,3.11,1.21,6.64,2.11,10.49,2.66.45.06,1.12.07,1.9.07,1.76,0,4.7.02,5.11.98.43,1-1.59,6.5-2.42,7.77-1.05,1.6-2.91,2.52-4.71,3.41-.52.26-1.04.51-1.53.78-3.05,1.66-5.89,2.17-9.19,2.75l-1.1.2c-1.32.24-2.85.55-4.24,1.18-.49.22-.99.58-1.47.93-.78.57-1.59,1.15-2.3,1.1-1.82-.15-4.32-2.57-6.32-4.52-.88-.85-1.71-1.66-2.4-2.19l-.8-.63c-2.59-2.04-5.28-4.15-8.76-4.23-1.56-.03-2.9.51-4.07,1-1.74.72-3.11,1.28-4.75-.01-1.96-1.55-3.66-4.24-5.05-8-1.01-2.73-1.78-5.69-2.6-8.82-1.42-5.43-2.9-11.04-5.7-15.49-1.57-2.5-4.18-4.19-7.15-4.65-2.93-.45-5.88.37-8.1,2.24C-1.51,39.93,0,46.87,1.22,52.45c.26,1.17.5,2.27.67,3.29.41,2.42.79,4.87,1.17,7.32.87,5.67,1.77,11.53,3.17,17.12,1.9,7.58,6.73,12.48,12.84,18.1,1.84,1.69,3.71,3.36,5.59,5.04,4.67,4.18,9.51,8.5,13.79,13.08,3.19,3.41,5,6.38,5.1,8.34.06,1.24-.75,2.2-1.68,3.31-.82.98-1.68,1.99-2.06,3.34-.89,3.13-.49,6.36,1.1,8.84,1.48,2.3,3.86,3.81,6.72,4.24,2.9.44,5.93.58,8.99.58,2.71,0,5.45-.11,8.14-.22,2.7-.11,5.25-.21,7.77-.21.73,0,1.49.02,2.25.05,1.75.06,3.57.11,5.29-.13.87-.12,1.75-.59,2.6-1.05.8-.43,1.63-.87,2.24-.87,1.11.03,2.26.45,3.51.93,1.34.52,2.72,1.06,4.21,1.12,6.69.28,13.55.17,20.18.07,2.25-.04,4.49-.07,6.72-.09,4.32-.04,7.82-1.33,9.85-3.63,1.69-1.91,2.36-4.44,2-7.52-.22-1.91-.89-3.57-2.11-5.22-.29-.39-.64-.71-.98-1.03-.57-.53-1.12-1.03-1.22-1.72-.3-2.09,2.65-5.82,3.9-7.42l.12-.15c3.4-4.32,7.78-8.13,12.01-11.82,1.74-1.52,3.54-3.08,5.22-4.65.97-.9,1.97-1.79,2.97-2.68,4.78-4.26,9.72-8.66,12.12-14.75,2.22-5.63,3.1-12.08,3.95-18.31.33-2.44.65-4.74,1.04-7,.22-1.25.54-2.64.89-4.12,1.35-5.75,3.03-12.91-.6-17.47ZM51.02,107.08c1.02-.37,1.55-1.48,1.57-3.28.02-1.85-1.62-3.49-2.95-4.8-.4-.4-.78-.78-1.08-1.13-2.11-2.47-4.13-5.03-6-7.62-.37-.51-.83-1.09-1.34-1.73-2.18-2.72-5.16-6.45-4.35-9.33.37-1.32.97-2.1,1.83-2.37,2.39-.76,6.31,2.44,8.41,4.15.28.23.53.43.75.6,1.48,1.16,3.03,2.32,4.67,3.54,7.44,5.56,15.88,11.86,19.11,20.25.82,2.13,1.38,4.52,1.75,7.51.11.87.32,1.93.54,3.05.49,2.51,1.05,5.35.75,7.16-.07.42-.1.73-.13.97-.02.17-.04.38,0,.35-.05.03-.25.08-.45.12-.23.05-.52.12-.9.23-1.87.53-4.63.33-7.07.15-1.17-.09-2.27-.17-3.21-.17-.99,0-1.99,0-2.98.01-1.97.02-4,.03-5.99-.02h-.22c-2.29-.06-2.48-.06-3.52-1.98-.51-.95-.98-1.87-1.44-2.78-1.63-3.21-3.17-6.25-5.95-9.12-3.32-3.43-7.12-6.66-10.8-9.78-5.29-4.5-10.77-9.15-14.95-14.52-4.8-6.15-5.87-14.76-6.91-23.09-.31-2.52-.61-4.89-1.01-7.16-.15-.88-.46-2.03-.8-3.36-.98-3.72-2.32-8.82-1.01-11,.8-1.33,1.61-1.96,2.38-1.88,1.6.18,3.48,3.24,5.16,8.4.59,1.81,1.15,3.63,1.72,5.46,1.2,3.86,2.43,7.84,3.89,11.65,1.65,4.31,4.14,7.08,7.02,10.29l.83.93c1.18,1.33,1.23,1.84,1.38,3.35.03.25.05.53.09.84.36,3.1,1.67,5.39,3.1,7.67,2.86,4.55,6.4,9.26,10.81,14.37.88,1.02,4.93,4.93,7.31,4.06Zm-4.1,25.64c.7-.75,2.16-.77,3.7-.79h.39c1.79-.04,3.61-.04,5.41-.04,1.22,0,2.44,0,3.64,0,1.26,0,2.52,0,3.79,0h3.71c2.99-.01,6.09-.02,9.13.02h.53c2.57.02,3.72.13,4,2.51.1.84-.11,1.5-.62,2.04-2.19,2.25-9.34,1.64-13.61,1.27-1.3-.11-2.43-.21-3.17-.21-.83,0-2.01.1-3.38.22-4.31.37-10.81.92-13.17-1.13-.54-.47-.82-1.04-.86-1.76-.06-1,.11-1.7.52-2.13Zm34.35-13.77l-.16-1.36c-.77-6.63-1.56-13.49-5.08-19.45-1.55-2.62-3.55-5.08-5.94-7.31-.61-.57-1.25-1.09-1.88-1.6-.58-.47-1.18-.96-1.73-1.47-.22-.2-.42-.38-.61-.54-.39-.34-.87-.76-.88-.91,0-.04.08-.25,1.05-.82,1.5-.88,3.57-1.12,5.58-1.35,1.56-.18,3.17-.37,4.56-.85.65-.23,1.36-.64,2.04-1.03.82-.47,1.82-1.05,2.38-1.05.09,0,.16.01.22.04.2.09.3.42.34.68.12.67-.39,3.63-.78,4.19-.42.6-.92.75-1.56.94-.61.18-1.31.39-1.94,1.05-1.19,1.27-1.15,2.4-.91,3.12.59,1.73,2.97,3,4.91,3.32,3.27.54,7-.28,9.5-2.07,1.96-1.4,2.92-4.31,2-6.09-.32-.62-1.35-1.95-4.08-1.03-.23.08-.44.18-.65.3,0-.06.01-.13.02-.19.23-2.53.66-7.25,2.38-8.28,1.9-1.13,5.62-.86,11.07.8l.11.03c7.58,2.31,8.73,3.72,8.87,4.23.33,1.17-3.44,3.92-5.25,5.24-.7.51-1.3.95-1.7,1.29-5.62,4.72-9.14,9.56-11.07,15.21-1.11,3.25-1.5,6.55-1.88,9.74-.11.89-.15,1.98-.2,3.14-.12,2.9-.27,6.19-1.36,7.97-.5.82-1.36,1.42-2.34,1.64-.97.22-1.97.06-2.75-.44-1.81-1.17-1.98-3.43-2.14-5.62-.04-.51-.08-1-.13-1.48Zm8.73,13.53c.38-.39,1.08-.56,2.24-.56,5.08-.01,9.88-.02,14.44-.02,5.18,0,10.05,0,14.7.02,1.15,0,1.89.21,2.31.65.44.45.63,1.22.6,2.43-.04,1.85-.73,2.54-2.54,2.55-3.52.02-7.04.02-10.57.01h-4.27s-3.52,0-3.52,0c-3.71,0-7.43.01-11.14,0-2.36-.01-2.81-.44-2.82-2.7,0-1.25.16-1.98.55-2.38Zm30.57-10.01c-.62,1.57-.77,1.94-2.54,2.35-1.95.45-4.62.27-6.98.11-1.19-.08-2.32-.15-3.33-.15h-.01c-.71,0-1.63.07-2.69.15-3.33.26-8.36.64-9.17-1.33-.42-1.03.34-4.52.79-6.61.2-.91.37-1.7.44-2.2.07-.5.13-.99.2-1.49.29-2.22.59-4.52,1.23-6.68,2.34-7.93,9.8-13.67,16.38-18.74,1.38-1.06,2.72-2.1,3.99-3.12.63-.51,1.36-1.19,2.21-1.97,2.75-2.55,6.45-5.97,9.37-5.97.24,0,.48.02.7.07,1.27.27,2.05.81,2.4,1.66.89,2.17-1.29,5.83-2.27,7.3-2.71,4.08-5.82,8.18-9.24,12.18-.28.33-.63.68-1.01,1.07-1.27,1.28-2.84,2.88-2.9,4.56-.04,1.22.45,2.31,1.35,2.98.94.7,2.19.87,3.41.46,2.84-.96,5.69-5.14,7.98-8.51.63-.92,1.17-1.72,1.64-2.34.4-.53.82-1.06,1.24-1.61,2.7-3.48,5.76-7.42,6.74-11.65.18-.79.24-1.52.3-2.22.09-1.19.17-2.22.87-3.26.63-.95,1.55-1.78,2.51-2.66.94-.86,1.92-1.75,2.65-2.79,2.67-3.77,4.04-8.15,5.37-12.39.25-.79.49-1.58.75-2.36.63-1.94,1.27-3.89,1.91-5.83l.83-2.54c.19-.58.36-1.27.55-2.01.46-1.86.99-3.96,1.96-4.99.99-1.05,2.7-1.77,4.13-.91,1.64,1,1.39,2.61,1.09,4.49l-.1.63c-.59,4.12-1.35,8.3-2.08,12.34-.33,1.85-.67,3.69-.99,5.54-.28,1.6-.51,3.28-.74,4.91-.57,4.1-1.17,8.34-2.51,12.1-1.71,4.76-5.62,8.25-9.41,11.62-.85.75-1.69,1.5-2.5,2.26-3.38,3.17-6.78,6.31-10.18,9.46l-3.89,3.61c-5.09,4.72-8.14,8.86-10.19,13.82l-.27.68ZM51.76,23.66c.49-2.36,4.15-2.94,7.9-2.94,2.32,0,4.67.22,6.34.38.59.05,1.1.1,1.51.13,7.11.51,11.5,2.66,14.25,6.96,2.82,4.42,4.34,9.55,4.84,16.44-2.6-3.94-6.21-7.54-10.52-10.51-1.28-.88-3.69-2.25-5.5-1.55-.89.34-1.48,1.12-1.75,2.31-.58,2.49,1.48,3.92,3.14,5.07.31.22.62.43.9.64,4.83,3.69,8.31,8.01,10.64,13.21.53,1.19.37,1.53.31,1.61-.33.4-1.97.03-3.17-.25-.57-.13-1.13-.26-1.66-.34-3.32-.55-6.2-1.35-8.8-2.46-5.39-2.3-9.37-5.87-11.83-10.6-1.17-2.25-2.08-4.72-2.96-7.1-.25-.69-.51-1.38-.77-2.07-.25-.65-.59-1.39-.96-2.18-1.02-2.18-2.29-4.9-1.9-6.75Zm90.95-6.83l-.14.21c-.84,1.25-1.66,2.58-2.46,3.86-2.99,4.8-6.08,9.77-10.8,12.82-6.27,4.05-13.89,4.33-19.17,3.86-.44-.04-.86-.07-1.25-.1-1.16-.08-2.47-.18-2.61-.5-.04-.09-.1-.51,1.01-1.98,1.55-2.06,3.65-4.12,6.23-6.12.55-.43,1.78-1.02,3.21-1.7,3.65-1.75,8.19-3.92,8.63-6.57.15-.91-.19-1.78-1.01-2.59-.69-.68-1.62-1.02-2.76-1.02h-.07c-5.2.06-13.74,7.18-15.7,9.19-.07.07-.13.14-.19.22-.04.05-.08.09-.12.13.71-6.12,6.1-13.99,10.57-16.97,5.36-3.58,11.6-2.62,17.53-1.33.72.16,1.52.29,2.37.43,2.43.4,5.19.86,6.91,2.02,2.57,1.73,1.65,3.37-.19,6.13Z"/>
  </g>
</svg>