<?xml version="1.0" encoding="UTF-8"?>
<svg id="Capa_2" data-name="Capa 2" xmlns="http://www.w3.org/2000/svg" viewBox="0 0 150.19 155.84">
  <defs>
    <style>
      .cls-1 {
        fill: #699aa6;
      }
    </style>
  </defs>
  <g id="Capa_3" data-name="Capa 3">
    <g>
      <path class="cls-1" d="m69.03,155.84c-13.57-1.93-24.14-5.67-33.27-11.76-7.98-5.33-14.7-12.53-21.79-23.35l-1.04-1.59-.72,1.76c-.45,1.1-.77,2.32-1.09,3.5-.92,3.48-1.72,6.49-5.36,6.92-.26.03-.51.05-.75.05-1.48,0-2.74-.56-3.63-1.63-1.14-1.35-1.61-3.39-1.26-5.45.65-3.82,1.82-7.72,2.95-11.49.55-1.84,1.12-3.74,1.62-5.6.21-.78.39-1.63.58-2.52.76-3.58,1.61-7.65,4.88-8.72.63-.21,1.37-.31,2.2-.31,2.76,0,6.08,1.14,9.01,2.15,1.32.45,2.57.88,3.69,1.18,2.88.77,5.75,1.55,8.62,2.34.52.14,1.07.27,1.64.4,2.08.49,4.23.99,5.53,2.35,1.15,1.2,1.63,2.95,1.29,4.67-.34,1.73-1.46,3.16-2.99,3.83-.75.33-1.68.5-2.75.5-3.04,0-6.74-1.28-9.99-2.41-1.42-.49-2.76-.96-3.91-1.26l-1-.27-.23,1c-.4,1.73,1.11,4.07,2.83,6.52.26.38.49.7.65.96,1.48,2.32,3.06,4.5,4.7,6.5,3.08,3.73,6.54,7.02,10.28,9.78,8,5.88,17.94,9.7,28.76,11.03,2.27.28,4.59.42,6.88.42,4.17,0,8.35-.47,12.41-1.38,1.23-.28,2.54-.75,3.92-1.25,2.29-.83,4.66-1.68,6.78-1.68,1.64,0,2.89.51,3.94,1.59,1.27,1.33,1.75,2.76,1.42,4.26-.44,1.98-2.35,3.94-4.76,4.87-5.74,2.21-11.72,3.2-17.85,4.1h-12.19Z"/>
      <path class="cls-1" d="m10.88,81.32c-2.35,0-4.52-1.66-5.17-3.95-1.28-4.52,1.67-11.72,3.61-16.49l.54-1.34c4.69-11.66,12.38-21.82,22.24-29.4,12.18-9.36,27.43-14.51,42.93-14.51h1.2l-.21-1.18c-.29-1.59-1.87-2.92-3.27-4.08-.71-.59-1.37-1.15-1.72-1.61-1.2-1.59-1.62-3.12-1.3-4.67.62-3.01,3.16-4.08,5.13-4.08,1.25,0,2.46.38,3.5,1.09,2.86,1.97,5.49,4.87,8.04,7.68,1.25,1.37,2.43,2.67,3.64,3.88.66.66,1.45,1.35,2.29,2.08,3.03,2.66,6.81,5.96,6.28,9.5-.47,3.17-4.28,6.5-7.35,9.17-1.02.89-1.98,1.73-2.75,2.5-.92.92-1.9,2.04-2.93,3.23-2.76,3.17-5.88,6.75-8.96,7.78-.53.18-1.07.27-1.62.27-1.49,0-2.93-.65-3.97-1.78-1.01-1.1-1.5-2.5-1.37-3.95.28-3.27,4.08-6.58,7.14-9.25,1.04-.9,2.02-1.76,2.81-2.56.07-.07.14-.13.21-.19.37-.33.94-.83,1.12-1.79l.22-1.13-1.15-.06c-1.38-.08-2.76-.12-4.11-.12-14.96,0-28.61,4.86-39.46,14.05-12.53,10.61-17.23,23.89-20.18,35.49-.8,3.16-2.34,4.96-4.56,5.34-.27.05-.55.07-.83.07Z"/>
      <path class="cls-1" d="m119.54,138.04c-1.86,0-3.2-.71-4.2-2.22-1.92-2.9-2.81-7.37-3.61-11.32-.34-1.7-.66-3.3-1.05-4.75-.26-.98-.63-2.08-1.03-3.25-1.29-3.8-2.9-8.53-1.26-11.46.9-1.6,2.66-2.6,4.6-2.6,1.46,0,2.8.56,3.77,1.57,2.24,2.34,3.13,6.85,3.91,10.83.36,1.82.7,3.54,1.14,5l.59,1.93,1.18-1.63c16.56-22.94,13.91-55.63-6.15-76.03-.59-.6-1.28-1.22-2.01-1.88-4.31-3.89-7.12-6.92-3.97-10.56,1.09-1.26,2.28-1.88,3.65-1.88,3.85,0,8.27,4.83,10.91,7.72l.51.55c9.25,10.05,15.53,22.91,17.69,36.21,1.31,8.04,1.29,16.03-.06,23.74-1.17,6.72-3.72,12.48-6.41,18.59-.6,1.36-1.21,2.74-1.81,4.14-.13.3-.09.56-.07.74,0,.05.02.12.02.21l.08,1.21,1.17-.31c.58-.15,1.18-.33,1.8-.51,1.98-.58,4.02-1.17,5.88-1.17,2.11,0,3.56.8,4.57,2.52.86,1.47,1.03,2.86.52,4.15-.72,1.79-2.81,3.37-5.46,4.12-4.08,1.16-8.26,2.26-12.3,3.32-1.92.5-3.84,1.01-5.76,1.52-.52.14-1.05.29-1.58.45-1.77.52-3.61,1.06-5.26,1.06Z"/>
    </g>
  </g>
</svg>