<?xml version="1.0" encoding="UTF-8"?>
<svg id="Capa_2" data-name="Capa 2" xmlns="http://www.w3.org/2000/svg" viewBox="0 0 652.62 559.8">
  <defs>
    <style>
      .cls-1 {
        fill: #f7f1e2;
      }

      .cls-2 {
        fill: #f8e8b3;
      }

      .cls-3 {
        fill: #008f56;
      }

      .cls-4 {
        fill: #e2d1a6;
      }

      .cls-5 {
        fill: #f9b132;
      }

      .cls-6 {
        fill: #002321;
      }

      .cls-7 {
        fill: #ffb6ae;
      }

      .cls-8 {
        fill: #f99c95;
      }

      .cls-9 {
        fill: #004646;
      }

      .cls-10 {
        fill: none;
        stroke: #004646;
        stroke-linecap: round;
        stroke-miterlimit: 10;
        stroke-width: 1.62px;
      }

      .cls-11 {
        fill: #f4a792;
      }

      .cls-12 {
        fill: #699aa6;
      }

      .cls-13 {
        fill: #003a38;
      }

      .cls-14 {
        fill: #ffcbc7;
      }
    </style>
  </defs>
  <g id="OBJECTS">
    <g>
      <path class="cls-2" d="m554.05,129.68h0c-5.15,0-10.21.4-15.15,1.16C503.1,53.59,424.89,0,334.15,0h0C209.57,0,108.57,100.99,108.57,225.57v318.92h544.05V228.24c0-54.44-44.13-98.57-98.57-98.57Z"/>
      <path class="cls-11" d="m311.37,54.12c-3.54.02-7.12.92-10.39,2.73-9.67,5.37-13.88,16.09-14.79,26.65.09-1.01-4.79-4.42-5.48-4.99-4.25-3.57-8.8-6.85-13.7-9.48-11.2-6-26.97-7.93-33.37,5.98-6.43,13.96,6.86,27.81,16.57,36.16,13.69,11.78,29.93,20.65,46.35,27.99.74.33,1.48.66,2.22.98,5.83-6.98,11.11-14.48,16.01-22.13,4.23-6.62,8.16-13.46,11.37-20.64,2.99-6.7,6.66-15.09,6.45-22.5-.12-4.22-1.42-8.43-3.87-11.88-4.15-5.87-10.7-8.92-17.36-8.87Z"/>
      <polygon class="cls-1" points="238.55 207.48 352.5 284.46 162 432.92 133.17 336.28 193.19 217.72 238.55 207.48"/>
      <path class="cls-9" d="m238.06,292.48c-.26-.18-.53-.36-.81-.53-5.52-3.49-12.46-4.96-18.83-3.31-4.54,1.17-8.64,3.91-11.58,7.54-3.56,4.4-2.89,8.69-5.06,13.53-2.53,5.64-7.96,8.99-12.57,12.76-7.28,5.94-19.11,23.49-5.66,29.99,6.05,2.92,12.12-.19,18.13-1.28,7.32-1.33,14.63-2.94,21.54-5.74,9.03-3.66,17.46-9.57,22.36-17.99,7.31-12.55,4.37-26.79-7.52-34.96Z"/>
      <path class="cls-11" d="m544.69,178.63c-.79-4.46-.74-9.36,1.74-13.15,2.45-3.75,7.07-5.81,11.54-5.68,4.48.13,8.76,2.27,11.98,5.38,2.8,2.7,5.54,6.41,9.42,6.2,2.69-.15,4.82-2.2,7.04-3.74,3.25-2.25,7.32-3.52,11.21-2.8s7.44,3.71,8.18,7.6c.32,1.66.13,3.38.31,5.07s.88,3.47,2.37,4.26c1.78.95,3.98.15,5.73-.87s3.5-2.3,5.52-2.31c3.44-.03,5.82,3.65,6.22,7.07.64,5.53-2.09,11.03-5.96,15.03-7.21,7.46-18.07,10.5-28.44,10.29-9.53-.19-18.34-3.08-27.42-5.64-6.84-1.93-11.73-8.28-15.05-14.33-2.11-3.86-3.62-8.05-4.39-12.38Z"/>
      <path class="cls-11" d="m587.15,296.49c.07,4.16,1.71,8.4,4.91,11.08,3.88,3.25,9.71,3.74,14.3,1.61,4.59-2.13,7.89-6.63,9.05-11.55,1.16-4.93.31-10.21-1.86-14.79-2.18-4.57-5.62-8.47-9.56-11.64-.72-.58-1.48-1.15-2.37-1.41-2.04-.6-4.19.59-5.75,2.04-3.3,3.04-4.9,7.07-5.38,11.46-.23,2.13-1.39,3.84-2.09,5.87-.82,2.36-1.3,4.84-1.26,7.34Z"/>
      <path class="cls-11" d="m608.82,249.17l.73,10.86-9.06,11.05,35.36-8.81s-14.04-7.92-27.02-13.11Z"/>
      <path class="cls-1" d="m477.55,299.24s27.82-3.23,39.79-32.67c11.97-29.43,26.85-72.13,67.28-69.54,0,0,13.8-1.43,24.06,11.44,3.2,4.01,3.14,9.73-.06,13.73-10.22,12.79-20.83,25.85-20.36,43.13.17,6.18,1.71,12.29,4.41,17.84,2.44,5.02,6.47,9.07,8.96,14.16,8.19,16.77,7.13,37.79-1.98,54.02-6.5,11.58-17.6,19.25-30.88,20.67l-91.22-72.78Z"/>
      <path class="cls-10" d="m504.67,308.57c-1.92,1.05-3.89,2.13-5.28,3.82-1.4,1.68-2.11,4.12-1.17,6.1,1.18,2.48,4.28,3.25,7,3.59,4.59.57,9.24.7,13.86.39,3.28-.22,7.28-.33,9.04,2.45,2.59,4.08-2.48,10.07.28,14.03,1.53,2.2,4.62,2.44,7.3,2.56,2.68.12,5.81.6,7.06,2.97,1.38,2.64-.49,5.86-.06,8.81.39,2.67,2.71,4.76,5.3,5.52,2.59.76,5.38.38,7.97-.35,8.78-2.49,16.07-8.97,20.83-16.75,4.76-7.78,7.17-16.79,8.44-25.83,1.76-12.55.01-32.06-14.84-36.47-5.27-1.56-11.1.85-15.9,2.89-8.02,3.39-15.69,7.87-23.37,11.95-8.85,4.71-17.66,9.52-26.46,14.33Z"/>
      <path class="cls-7" d="m595.66,240.52c-4.95-.79-10.33-.03-14.3,3.03-4.16,3.21-6.3,8.78-5.54,13.98.76,5.2,4.3,9.86,9.03,12.16,4.72,2.3,10.48,2.26,15.25.06,4.77-2.19,8.51-6.45,10.28-11.4,3.33-9.33-6.46-16.51-14.72-17.84Z"/>
      <path class="cls-6" d="m595.78,256.03c0,1.8-1.46,3.27-3.27,3.27s-3.27-1.46-3.27-3.27,1.46-3.27,3.27-3.27,3.27,1.46,3.27,3.27Z"/>
      <g>
        <path class="cls-13" d="m386.5,162.16c-16.35-.33-32.94.52-48.56,5.38-15.62,4.86-30.31,14.08-39.29,27.75s-11.45,32.08-4.02,46.66c3.52,6.91,9.28,13.77,7.76,21.38-1.16,5.78-6.21,9.83-10.83,13.5-8.62,6.86-16.95,14.28-23.31,23.27-6.36,9-10.69,19.74-10.54,30.75,36.54,21.66,82.86,25.73,122.46,10.37l6.33-179.06Z"/>
        <path class="cls-13" d="m384.67,162.16c16.35-.33,32.94.52,48.56,5.38,15.62,4.86,30.31,14.08,39.29,27.75,8.98,13.67,11.45,32.08,4.02,46.66-3.52,6.91-9.28,13.77-7.76,21.38,1.16,5.78,6.21,9.83,10.83,13.5,8.62,6.86,16.95,14.28,23.31,23.27,6.36,9,10.69,19.74,10.54,30.75-36.54,21.66-82.86,25.73-122.46,10.37l-6.33-179.06Z"/>
      </g>
      <path class="cls-13" d="m421.2,145.86c0,15.22-21.41,29.84-36.47,29.84-12.6,0-36.47-14.62-36.47-29.84s16.33-27.56,36.47-27.56,36.47,12.34,36.47,27.56Z"/>
      <path class="cls-12" d="m611.67,476.53c-24.17,68.53-96.69,82.78-151.42,83.09-3.24.02-6.41-.01-9.53-.08-14.98-1.25-36.48-6.87-56.85-13.17l-.18-4.54h-19.46l-.16,4.38c-21.83,6.76-44.94,12.74-59.97,13.39-1.5.01-3.03.02-4.57.02h-.06c-54.92-.01-128.79-13.82-153.22-83.1-9.89-28.08-8.64-59.02,3.18-86.34,9.68-22.36,28.03-49.33,62.86-70.72,34.82-21.38,86.12-37.17,161.67-37.17,151.1,0,205.17,63.17,224.51,107.89,11.83,27.33,13.09,58.26,3.2,86.34Z"/>
      <path class="cls-8" d="m429.21,392.26c4.11-8.2,8.28-17.05,7.06-26.14-.46-3.45-2.11-7.2-5.42-8.27-2.42-.79-5.07.09-7.34,1.24s-4.45,2.62-6.95,3.11c-2.5.49-5.52-.33-6.57-2.66-.4-.88-.48-1.87-.85-2.75-.95-2.23-3.67-3.31-6.07-2.99-2.4.32-4.52,1.74-6.34,3.34-1.25,1.1-2.43,2.31-3.86,3.16-1.43.86-3.2,1.33-4.78.8-2.44-.81-3.55-3.55-5.22-5.51-2.93-3.43-8.04-4.5-12.38-3.3-4.35,1.2-7.95,4.36-10.5,8.08-2.55,3.72-4.16,7.99-5.63,12.26,4.79,8.48,13.41,15.4,22.45,19.01,9.05,3.61,18.86,4.89,28.59,5.37,8.76.43,16.34-.17,23.82-4.75Z"/>
      <path class="cls-9" d="m422.45,391.53l17.8-75.31,8.9,1.2-7.59,43.84c-.27,1.59,1.96,2.24,2.58.75l20.65-49.17,7.36,2.94-11.89,46.64c-.39,1.53,1.7,2.37,2.48,1.01l29.02-50.59,8.15,3.13-22.26,48.24c-.68,1.47,1.32,2.67,2.3,1.39l23.33-30.62,6.5,4.33-32.96,56.54-54.38-4.33Z"/>
      <path class="cls-9" d="m351.27,339.47c-1.37-1.23-3-2.2-5.03-2.76-3.59-1-7.54-.19-10.71,1.74-12.03,7.33-11.74,24.77-7.83,36.53,7.69,23.14,30.62,35.42,53.88,36.18,4.19.14,8.42-.08,12.49-1.14,6.01-1.57,13.04-5.81,15.06-12.09,2.07-6.45-1.71-14.36-6.37-18.75-5.71-5.38-13.31-7.38-20.17-10.78-6.61-3.27-13.08-7-18.58-11.98-2.67-2.42-4.73-4.89-6.52-8-1.81-3.14-3.47-6.5-6.22-8.95Z"/>
      <g>
        <circle class="cls-11" cx="328.01" cy="367.27" r="24.49" transform="translate(-13.81 12.82) rotate(-2.19)"/>
        <path class="cls-11" d="m338.74,359.56c-1.47,2.92-3.46,5.58-5.84,7.83,2.72,2.33,5.45,4.67,8.17,7-3.16-1.14-6.4-2.07-9.69-2.79-.23,3.34-.1,6.71.4,10.02-2.76-2.02-3.85-5.88-6.84-7.52-2.86-1.57-6.5-.59-9.59-1.65,2.59-1.71,5.18-3.42,7.77-5.12-1.24-2.55-2.14-5.26-2.67-8.04,1.52,1.15,3.05,2.29,4.57,3.44,1.19.89,2.1,2.15,3.56,1.63,3.46-1.24,6.82-3.22,10.14-4.79Z"/>
      </g>
      <g>
        <circle class="cls-11" cx="300.81" cy="381.8" r="24.49"/>
        <path class="cls-11" d="m303.45,368.85c.9,3.15,1.26,6.45,1.04,9.71,3.58-.14,7.17-.27,10.75-.41-3.1,1.31-6.1,2.83-9,4.54,2.1,2.61,4.49,4.99,7.1,7.08-3.39.39-6.82-1.7-10.13-.87-3.17.79-5.17,3.98-8.16,5.3.74-3.01,1.48-6.03,2.22-9.04-2.64-1.02-5.14-2.4-7.42-4.09,1.9-.2,3.79-.39,5.69-.59,1.48-.15,3,.15,3.72-1.23,1.7-3.26,2.81-7,4.19-10.41Z"/>
      </g>
      <polygon class="cls-2" points="491.77 503.82 274.2 503.82 279.24 440.73 274.2 386.1 491.77 386.1 486.74 440.73 491.77 503.82"/>
      <polygon class="cls-5" points="274.2 386.1 300.81 439.32 292.02 503.82 274.2 503.82 279.24 440.73 274.2 386.1"/>
      <polygon class="cls-5" points="466.12 436.67 491.77 386.1 486.74 440.73 491.77 503.82 470.97 503.82 466.12 436.67"/>
      <path class="cls-7" d="m462.1,462.1l-1.86,97.52h0c-2.74.27-5.95.22-9.53-.08-14.98-1.25-36.48-6.87-56.85-13.17-4.83-1.48-9.59-3.01-14.19-4.54-24.4-8.04-44.19-15.74-44.19-15.74-7.58-7.92,3.99-10.09,3.99-10.09l30.32,5.78c.7.13,1-.86.34-1.14l-33.87-14.16c-5.86-8.18,3.96-9.62,3.96-9.62l39.72,10.02c.68.18,1.05-.78.41-1.1l-32.62-16.93c-2.28-1.19-4.16-3.09-5.1-5.48-1.59-4.1,1.68-5.33,4.36-5.67,1.62-.21,3.27-.01,4.82.52l35.12,11.84c.66.22,1.1-.68.52-1.07l-28.83-19.07c-7.92-10.26,4.9-8.81,4.9-8.81l53.4,14.29c.2.06.39.08.59.08,1.02,0,1.94-.73,2.15-1.79.2-1.03-.36-2.09-1.36-2.47-17.89-6.83-21.82-17.56-22.61-23.11-.25-1.75,1.4-3.18,3.11-2.73,13.25,3.51,62.66,16.61,63.29,16.72Z"/>
      <path class="cls-7" d="m432.35,525.97s-19.97,7.78-44.53,15.86c-4.46,1.47-9.08,2.95-13.76,4.38-21.83,6.76-44.94,12.74-59.97,13.39-1.62.07-3.15.08-4.57.02h-.06c-.65-.04-1.27-.07-1.87-.13l-1.87-97.52c.63-.12,50.05-13.22,63.3-16.73,1.72-.45,3.36.98,3.11,2.73-.79,5.56-4.71,16.3-22.62,23.12-.99.38-1.55,1.42-1.35,2.47.21,1.06,1.14,1.77,2.16,1.77.19,0,.39-.02.58-.07l53.4-14.29s12.82-1.45,4.89,8.8l-28.83,19.08c-.58.39-.14,1.28.53,1.06l35.11-11.83c1.55-.53,3.2-.73,4.82-.52,2.68.34,5.96,1.57,4.36,5.66-.93,2.4-2.82,4.3-5.1,5.47l-32.62,16.94c-.62.33-.26,1.28.42,1.1l39.71-10.02s9.82,1.45,3.97,9.62l-33.87,14.16c-.67.27-.36,1.27.34,1.14l30.32-5.78s11.57,2.17,3.98,10.09Z"/>
      <path class="cls-3" d="m243.85,441.1l62.55,20.88,1.87,97.52s-109.99-31-64.42-118.41Z"/>
      <path class="cls-3" d="m525.5,441.22l-63.39,20.88-1.87,97.52s110.83-31,65.26-118.41Z"/>
      <g>
        <path class="cls-7" d="m370.87,255.38h26.17v29.39c0,7.22-5.86,13.09-13.09,13.09h0c-7.22,0-13.09-5.86-13.09-13.09v-29.39h0Z"/>
        <path class="cls-8" d="m370.87,231.59h26.17v29.39c0,7.22-5.86,13.09-13.09,13.09h0c-7.22,0-13.09-5.86-13.09-13.09v-29.39h0Z"/>
      </g>
      <g>
        <circle class="cls-8" cx="334.97" cy="227.87" r="15.72"/>
        <circle class="cls-8" cx="434.48" cy="227.87" r="15.72"/>
        <path class="cls-7" d="m426.88,213.88c0,23.44-19,50.14-42.44,50.14s-42.44-26.7-42.44-50.14c0-32.21,19-42.44,42.44-42.44s42.44,8.61,42.44,42.44Z"/>
        <g>
          <circle class="cls-6" cx="365.52" cy="224.8" r="2.45"/>
          <circle class="cls-6" cx="403.04" cy="224.8" r="2.45"/>
        </g>
        <circle class="cls-8" cx="361.68" cy="236.86" r="8.12"/>
        <circle class="cls-8" cx="407.82" cy="236.86" r="8.12"/>
        <path class="cls-10" d="m362.94,238.14s19.11,19.24,46.75,0"/>
        <path class="cls-8" d="m384.75,238.14h0c-2.35,0-4.25-1.9-4.25-4.25v-9.3c0-2.35,1.9-4.25,4.25-4.25h0c2.35,0,4.25,1.9,4.25,4.25v9.3c0,2.35-1.9,4.25-4.25,4.25Z"/>
        <path class="cls-9" d="m408.58,163.76c-4.61-1.84-9.42-3.13-14.33-3.88l-9.82-1.48s0,0,0,0h-.02s-.02,0-.02,0c0,0,0,0,0,0l-9.82,1.48c-4.91.74-9.72,2.03-14.33,3.88-17.19,6.87-50.85,25.66-17.52,58.71,0,0,31.26-12.05,39.62-37.49v.32c0-.25.05-.48.13-.7.01-.04.03-.08.04-.12.32-.73,1.04-1.24,1.89-1.24.78,0,1.46.44,1.81,1.08.07.22.15.43.23.65.02.11.03.21.03.33v-.23c8.39,25.46,39.61,37.4,39.61,37.4,33.33-33.06-.33-51.84-17.52-58.71Z"/>
      </g>
      <g>
        <path class="cls-1" d="m289.31,214.98c-42.47,49.92-89.66,20-89.66,20-.61,21.25-17.04,60.64-27.41,84.82-1.63-2.93-3.77-5.6-6.26-7.81-8.12-7.23-19.26-10.27-29.81-12.03-14.57-2.44-29.42-2.48-44.06-.53-7.41.99-16.28,1.61-22.09,6.94-1.93,1.77-3.34,3.89-4.36,6.23.11-13.86,4.42-29.56,7.79-39.72,2.82-8.48,4.76-17.24,5.86-26.11l2.31-18.65c-50.39,12.78-72.68-17.14-79.35-29.01-1.57-2.8-2.28-4.59-2.28-4.59,47.36-30.79,84.86-6.22,84.86-6.22l31.39-9.79c22.14-6.91,46-5.76,67.37,3.23l17.94,7.54c59.88-10.47,87.74,25.7,87.74,25.7Z"/>
        <path class="cls-8" d="m140.93,300.84c-17.51-3.64-34.69-4.45-52.42-2.09-6.26.84-13.84,3.35-18.49,7.62-1.92,1.77-3.33,3.89-4.35,6.23,0,.64-.01,1.29,0,1.92.15,6.69,3.45,12.9,8.89,16.81,12.34,8.87,39.54,22.53,79.83,10.72,6.05-1.77,10.97-6.21,13.45-12.01,1.25-2.94,2.75-6.41,4.4-10.25-1.63-2.93-3.78-5.6-6.26-7.81-6.91-6.15-16-9.26-25.06-11.15Z"/>
        <g>
          <path class="cls-6" d="m101.29,249.93c.09,1.62-1.15,3.02-2.77,3.11-1.62.09-3.02-1.15-3.11-2.77-.09-1.62,1.15-3.02,2.77-3.11,1.62-.09,3.02,1.15,3.11,2.77Z"/>
          <path class="cls-9" d="m160.82,233.65c-5.66.09-11.69,1.31-15.68,5.32-2.74,2.75-4.23,6.58-4.68,10.44-.45,3.86.09,7.77.94,11.56.87,3.87,2.2,7.86,5.14,10.53,3.8,3.46,9.43,3.94,14.55,3.55,5.12-.4,10.19-1.5,15.02-3.27,3.77-1.38,7.52-3.28,9.96-6.46,3.4-4.42,3.64-10.77,1.44-15.89-4.25-9.92-16.26-15.95-26.7-15.78Z"/>
          <path class="cls-6" d="m170.89,253.76c.09,1.62-1.15,3.02-2.77,3.11-1.62.09-3.02-1.15-3.11-2.77-.09-1.62,1.15-3.02,2.77-3.11,1.62-.09,3.02,1.15,3.11,2.77Z"/>
        </g>
        <path class="cls-8" d="m77.92,149.16c6.85,3.06,14.18,4.86,21.39,6.93,2.55.73,11.89,2.02,13.51,4.12,2.49,3.24-5.28,7.58-7.34,11.11-2.86,4.89-7.18,8.72-11.43,12.47-2.52,2.23-5.23,4.54-8.54,5.14-4.58.83-9.14-1.91-12.18-5.43-4.4-5.1-6.51-11.76-8.09-18.31-1.59-6.58-2.77-13.27-3.52-20-.15-1.35-1.5-7.74.98-6.92.88.29,2.26,2.45,3,3.12,1.07.98,2.21,1.9,3.39,2.75,2.75,1.99,5.74,3.64,8.84,5.02Z"/>
        <path class="cls-14" d="m247.66,164.16c-7.5.21-14.96-.92-22.42-1.76-2.63-.3-11.43.59-13.72,1.91-3.54,2.04,1.65,5.76,2.22,9.81.78,5.61,3.31,10.8,5.81,15.89,1.48,3.02,3.1,6.19,5.93,8.01,3.92,2.51,9.18,1.72,13.33-.37,6.02-3.04,10.5-8.39,14.47-13.84,3.98-5.48,7.62-11.21,10.89-17.14.66-1.19,4.34-6.58,1.73-6.77-.93-.07-3.02,1.4-3.97,1.74-1.37.5-2.77.91-4.18,1.25-3.3.79-6.7,1.17-10.09,1.27Z"/>
        <path class="cls-9" d="m100.37,164.47c-6.25,5.68-10.34,13.31-13.99,20.92-1.2,2.52-2.33,5.66-.69,7.92,1.9,2.61,5.89,1.99,8.99,1.09,4.71-1.37,9.43-2.74,14.14-4.11,3.32-.97,7.66-1.6,9.58,1.29,1.48,2.22.52,5.25,1.27,7.8.93,3.15,4.45,5.02,7.74,4.89,3.28-.13,6.3-1.86,8.85-3.94s4.77-4.53,7.39-6.52c2.97-2.25,7.04-3.86,10.36-2.16,4.54,2.33,4.55,8.94,7.9,12.8,2.17,2.5,5.67,3.62,8.98,3.35,3.3-.27,6.41-1.8,9.03-3.82,4.24-3.29,8.33-8.25,13.65-7.54,7.09.95,9.37,11.13,16.17,13.34,5.21,1.69,10.88-2.35,12.95-7.42,2.08-5.07,1.51-10.78.91-16.22-.88-7.94-2.23-16.77-8.53-21.67-4.72-3.67-11.08-4.18-17.04-4.55-14.36-.89-28.71-1.79-43.07-2.68-7.18-.45-14.36-.89-21.53-1.34-5.09-.32-9.51.3-14.51.82-7.07.74-13.18,2.89-18.53,7.75Z"/>
      </g>
      <path class="cls-4" d="m81.63,228.12c-50.39,12.78-72.68-17.14-79.35-29.01,12.68-2.49,74.09-12.38,79.35,29.01Z"/>
      <path class="cls-4" d="m289.31,214.98c-42.47,49.92-89.66,20-89.66,20,0,0,23.06-31.21,89.66-20Z"/>
      <g>
        <path class="cls-6" d="m84.87,313.68s11.27,1.11,10.29,8.49c0,0-5.13-.09-6.01-4.34,0,0-2.21-.4-4.28-4.14Z"/>
        <path class="cls-6" d="m145.32,320.68s-11.23-1.49-11.96,5.91c0,0,5.01,1.08,6.85-2.86,0,0,2.24.12,5.11-3.06Z"/>
      </g>
      <path class="cls-10" d="m136.04,345.89c8.46-.97,18.59-2.47,25.23-7.81,5.43-4.36,8.54-10.93,11.33-17.31,9.75-22.27,21.93-57.22,28.36-80.66"/>
      <g>
        <path class="cls-10" d="m240.1,420.75c16.84,20.21,40.89,36.49,65.64,41.23"/>
        <path class="cls-10" d="m246.3,417.36c-.04,3.63.18,7.27.65,10.87"/>
      </g>
      <g>
        <path class="cls-10" d="m527.74,420.75c-16.84,20.21-40.89,36.49-65.64,41.23"/>
        <path class="cls-10" d="m521.54,417.36c.04,3.63-.18,7.27-.65,10.87"/>
      </g>
    </g>
  </g>
</svg>