<?xml version="1.0" encoding="UTF-8"?>
<svg id="Capa_2" data-name="Capa 2" xmlns="http://www.w3.org/2000/svg" viewBox="0 0 157.83 154.39">
  <defs>
    <style>
      .cls-1 {
        fill: #699aa6;
      }
    </style>
  </defs>
  <g id="Capa_3" data-name="Capa 3">
    <path class="cls-1" d="m157.83,85.49c-.58,4.52-1.13,9.05-2.38,13.46-7.32,25.8-23.32,43.96-48.27,53.83-14.82,5.86-31.54-4.93-32.94-20.79-.12-1.38-.27-2.76-.2-4.14.05-1.04-.27-1.49-1.4-1.71-16.28-3.07-28-14.75-31.15-30.96-1.39-7.12.05-13.86,2.65-20.46,4.13-10.45,9.68-20.15,15.58-29.67,4.71-7.59,9.74-14.97,15.01-22.19,2.33-3.19,6.11-3.32,8.38-.19,10.4,14.36,20.13,29.13,27.77,45.19,2.54,5.34,4.86,10.79,5.76,16.67,1.24,8.12-.48,15.75-4.55,22.8-5.97,10.34-14.94,16.56-26.66,18.78-1.19.23-1.49.68-1.5,1.79-.09,7.71,3.13,13.05,9.47,15.58,3.6,1.43,7.25,1.49,10.8,0,23.97-10.05,38.71-27.74,43.02-53.43,3.44-20.48-1.68-39.08-14.86-55.15-11.49-14.01-26.45-22.23-44.47-24.49-29.76-3.73-57.6,11.24-71.02,38.07-3.97,7.93-6.23,16.35-6.86,25.22-1.33,18.88,4.16,35.55,16.18,50.08,3.85,4.65,8.34,8.63,13.28,12.09,2.19,1.54,2.97,3.38,2.39,5.51-.94,3.47-4.61,4.76-7.73,2.65-5.13-3.47-9.74-7.54-13.86-12.15C9.65,119.97,2.94,106.12.82,90.28c-3.16-23.54,2.86-44.6,18.28-62.73C30.5,14.13,44.97,5.52,62.19,1.82c36.83-7.93,73.43,10.64,88.85,44.66,3.63,8.01,5.84,16.41,6.59,25.18.03.3.13.6.2.9v12.94Zm-73.89-11.33c0,4.33-.03,8.67,0,13,.03,4.62,2.07,2.11,5.21.38,2.78-1.54,5.84-3.33,8.55-.54,2.44,2.52,1.33,5.73-1.17,7.61-3.27,2.47-8.17,3.46-11.15,6.23-2.49,2.31-1.41,6.51-1.42,9.74,0,2.77-1.14,5.47,1.84,5.48,2.99,0,7.23-2.7,9.54-4.34,25.85-18.35,1.75-50.78-10.64-69.55-.92-1.4-4.28-8.14-6.08-7.83-1.46.25-4.93,7.15-5.73,8.35-3.95,5.99-7.75,12.1-11.29,18.35-6.2,10.95-14.06,24.32-9.24,37.17,1.98,5.28,5.58,9.97,10.1,13.33,2.31,1.72,4.89,3.11,7.63,3.99,3.24,1.04,3.93,1.04,3.95-2.42.05-7.75-.04-15.5,0-23.25.02-4.33-1.22-4.85-4.86-6.87-2.66-1.48-6.27-2.84-8.51-4.94-2.17-2.04-2.46-5.31-.09-7.36,2.23-1.93,4.72-1.01,7.05.21,1.36.71,5.32,3.82,6.35,2.74,1.06-1.13.05-7.7.05-9.46,0-2.78-.61-6.32,1.66-8.43,1.58-1.48,4.01-1.75,5.86-.61,3.02,1.85,2.39,5.81,2.39,8.8,0,3.41,0,6.82,0,10.23Z"/>
  </g>
</svg>